<mxfile host="app.diagrams.net" agent="Mozilla/5.0 (Windows NT 10.0; Win64; x64) AppleWebKit/537.36 (KHTML, like Gecko) Chrome/128.0.0.0 Safari/537.36" version="24.7.7">
  <diagram name="Page-1" id="YgBIgzmdp5q6S9QlcWgn">
    <mxGraphModel dx="2261" dy="738" grid="1" gridSize="10" guides="1" tooltips="1" connect="1" arrows="1" fold="1" page="1" pageScale="1" pageWidth="827" pageHeight="1169" math="0" shadow="0">
      <root>
        <mxCell id="0" />
        <mxCell id="1" parent="0" />
        <mxCell id="kbEmUONuhjKTEiQlUI-O-2" style="edgeStyle=orthogonalEdgeStyle;rounded=0;orthogonalLoop=1;jettySize=auto;html=1;exitX=0.5;exitY=1;exitDx=0;exitDy=0;entryX=0.5;entryY=0;entryDx=0;entryDy=0;" edge="1" parent="1" source="kbEmUONuhjKTEiQlUI-O-1" target="kbEmUONuhjKTEiQlUI-O-3">
          <mxGeometry relative="1" as="geometry">
            <mxPoint x="80" y="350" as="targetPoint" />
          </mxGeometry>
        </mxCell>
        <mxCell id="kbEmUONuhjKTEiQlUI-O-1" value="Code" style="rounded=1;whiteSpace=wrap;html=1;fillColor=#b1ddf0;strokeColor=#10739e;" vertex="1" parent="1">
          <mxGeometry x="390" y="10" width="90" height="30" as="geometry" />
        </mxCell>
        <mxCell id="kbEmUONuhjKTEiQlUI-O-6" value="" style="edgeStyle=orthogonalEdgeStyle;rounded=0;orthogonalLoop=1;jettySize=auto;html=1;" edge="1" parent="1" source="kbEmUONuhjKTEiQlUI-O-3" target="kbEmUONuhjKTEiQlUI-O-5">
          <mxGeometry relative="1" as="geometry" />
        </mxCell>
        <mxCell id="kbEmUONuhjKTEiQlUI-O-22" value="" style="edgeStyle=orthogonalEdgeStyle;rounded=0;orthogonalLoop=1;jettySize=auto;html=1;" edge="1" parent="1" source="kbEmUONuhjKTEiQlUI-O-3" target="kbEmUONuhjKTEiQlUI-O-21">
          <mxGeometry relative="1" as="geometry" />
        </mxCell>
        <mxCell id="kbEmUONuhjKTEiQlUI-O-3" value="Global" style="rounded=1;whiteSpace=wrap;html=1;fillColor=#b0e3e6;strokeColor=#0e8088;" vertex="1" parent="1">
          <mxGeometry x="230" y="100" width="80" height="30" as="geometry" />
        </mxCell>
        <mxCell id="kbEmUONuhjKTEiQlUI-O-8" value="" style="edgeStyle=orthogonalEdgeStyle;rounded=0;orthogonalLoop=1;jettySize=auto;html=1;" edge="1" parent="1" source="kbEmUONuhjKTEiQlUI-O-5" target="kbEmUONuhjKTEiQlUI-O-7">
          <mxGeometry relative="1" as="geometry" />
        </mxCell>
        <mxCell id="kbEmUONuhjKTEiQlUI-O-15" value="" style="edgeStyle=orthogonalEdgeStyle;rounded=0;orthogonalLoop=1;jettySize=auto;html=1;" edge="1" parent="1" source="kbEmUONuhjKTEiQlUI-O-5" target="kbEmUONuhjKTEiQlUI-O-14">
          <mxGeometry relative="1" as="geometry" />
        </mxCell>
        <mxCell id="kbEmUONuhjKTEiQlUI-O-29" value="" style="edgeStyle=orthogonalEdgeStyle;rounded=0;orthogonalLoop=1;jettySize=auto;html=1;" edge="1" parent="1" source="kbEmUONuhjKTEiQlUI-O-5" target="kbEmUONuhjKTEiQlUI-O-28">
          <mxGeometry relative="1" as="geometry" />
        </mxCell>
        <mxCell id="kbEmUONuhjKTEiQlUI-O-5" value="Gameplay" style="rounded=1;whiteSpace=wrap;html=1;fillColor=#fad7ac;strokeColor=#b46504;" vertex="1" parent="1">
          <mxGeometry x="30" y="160" width="80" height="30" as="geometry" />
        </mxCell>
        <mxCell id="kbEmUONuhjKTEiQlUI-O-13" style="edgeStyle=orthogonalEdgeStyle;rounded=0;orthogonalLoop=1;jettySize=auto;html=1;exitX=0.5;exitY=1;exitDx=0;exitDy=0;entryX=0.25;entryY=0;entryDx=0;entryDy=0;" edge="1" parent="1" source="kbEmUONuhjKTEiQlUI-O-7" target="kbEmUONuhjKTEiQlUI-O-9">
          <mxGeometry relative="1" as="geometry" />
        </mxCell>
        <mxCell id="kbEmUONuhjKTEiQlUI-O-7" value="Common" style="rounded=1;whiteSpace=wrap;html=1;fillColor=#fad9d5;strokeColor=#ae4132;" vertex="1" parent="1">
          <mxGeometry x="30" y="230" width="80" height="30" as="geometry" />
        </mxCell>
        <mxCell id="kbEmUONuhjKTEiQlUI-O-9" value="CPP files" style="swimlane;fontStyle=0;childLayout=stackLayout;horizontal=1;startSize=30;horizontalStack=0;resizeParent=1;resizeParentMax=0;resizeLast=0;collapsible=1;marginBottom=0;whiteSpace=wrap;html=1;fillColor=#FF0000;fontColor=#ffffff;strokeColor=#005700;" vertex="1" parent="1">
          <mxGeometry x="10" y="310" width="200" height="120" as="geometry" />
        </mxCell>
        <mxCell id="kbEmUONuhjKTEiQlUI-O-10" value="cogRandomSpawner" style="text;align=left;verticalAlign=middle;spacingLeft=4;spacingRight=4;overflow=hidden;points=[[0,0.5],[1,0.5]];portConstraint=eastwest;rotatable=0;whiteSpace=wrap;fontColor=default;" vertex="1" parent="kbEmUONuhjKTEiQlUI-O-9">
          <mxGeometry y="30" width="200" height="30" as="geometry" />
        </mxCell>
        <mxCell id="kbEmUONuhjKTEiQlUI-O-11" value="Item 2" style="text;strokeColor=none;fillColor=none;align=left;verticalAlign=middle;spacingLeft=4;spacingRight=4;overflow=hidden;points=[[0,0.5],[1,0.5]];portConstraint=eastwest;rotatable=0;whiteSpace=wrap;html=1;" vertex="1" parent="kbEmUONuhjKTEiQlUI-O-9">
          <mxGeometry y="60" width="200" height="30" as="geometry" />
        </mxCell>
        <mxCell id="kbEmUONuhjKTEiQlUI-O-12" value="Item 3" style="text;strokeColor=none;fillColor=none;align=left;verticalAlign=middle;spacingLeft=4;spacingRight=4;overflow=hidden;points=[[0,0.5],[1,0.5]];portConstraint=eastwest;rotatable=0;whiteSpace=wrap;html=1;" vertex="1" parent="kbEmUONuhjKTEiQlUI-O-9">
          <mxGeometry y="90" width="200" height="30" as="geometry" />
        </mxCell>
        <mxCell id="kbEmUONuhjKTEiQlUI-O-20" style="edgeStyle=orthogonalEdgeStyle;rounded=0;orthogonalLoop=1;jettySize=auto;html=1;exitX=0.5;exitY=1;exitDx=0;exitDy=0;entryX=0.25;entryY=0;entryDx=0;entryDy=0;" edge="1" parent="1" source="kbEmUONuhjKTEiQlUI-O-14" target="kbEmUONuhjKTEiQlUI-O-16">
          <mxGeometry relative="1" as="geometry" />
        </mxCell>
        <mxCell id="kbEmUONuhjKTEiQlUI-O-14" value="Mission" style="rounded=1;whiteSpace=wrap;html=1;fillColor=#fad9d5;strokeColor=#ae4132;" vertex="1" parent="1">
          <mxGeometry x="250" y="230" width="80" height="30" as="geometry" />
        </mxCell>
        <mxCell id="kbEmUONuhjKTEiQlUI-O-16" value="CPP files" style="swimlane;fontStyle=0;childLayout=stackLayout;horizontal=1;startSize=30;horizontalStack=0;resizeParent=1;resizeParentMax=0;resizeLast=0;collapsible=1;marginBottom=0;whiteSpace=wrap;html=1;fillColor=#FF0000;fontColor=#ffffff;strokeColor=#005700;" vertex="1" parent="1">
          <mxGeometry x="230" y="310" width="200" height="120" as="geometry" />
        </mxCell>
        <mxCell id="kbEmUONuhjKTEiQlUI-O-17" value="LootManager" style="text;align=left;verticalAlign=middle;spacingLeft=4;spacingRight=4;overflow=hidden;points=[[0,0.5],[1,0.5]];portConstraint=eastwest;rotatable=0;whiteSpace=wrap;fontColor=default;" vertex="1" parent="kbEmUONuhjKTEiQlUI-O-16">
          <mxGeometry y="30" width="200" height="30" as="geometry" />
        </mxCell>
        <mxCell id="kbEmUONuhjKTEiQlUI-O-18" value="Item 2" style="text;strokeColor=none;fillColor=none;align=left;verticalAlign=middle;spacingLeft=4;spacingRight=4;overflow=hidden;points=[[0,0.5],[1,0.5]];portConstraint=eastwest;rotatable=0;whiteSpace=wrap;html=1;" vertex="1" parent="kbEmUONuhjKTEiQlUI-O-16">
          <mxGeometry y="60" width="200" height="30" as="geometry" />
        </mxCell>
        <mxCell id="kbEmUONuhjKTEiQlUI-O-19" value="Item 3" style="text;strokeColor=none;fillColor=none;align=left;verticalAlign=middle;spacingLeft=4;spacingRight=4;overflow=hidden;points=[[0,0.5],[1,0.5]];portConstraint=eastwest;rotatable=0;whiteSpace=wrap;html=1;" vertex="1" parent="kbEmUONuhjKTEiQlUI-O-16">
          <mxGeometry y="90" width="200" height="30" as="geometry" />
        </mxCell>
        <mxCell id="kbEmUONuhjKTEiQlUI-O-27" style="edgeStyle=orthogonalEdgeStyle;rounded=0;orthogonalLoop=1;jettySize=auto;html=1;exitX=0.25;exitY=1;exitDx=0;exitDy=0;entryX=0.25;entryY=0;entryDx=0;entryDy=0;" edge="1" parent="1" source="kbEmUONuhjKTEiQlUI-O-21" target="kbEmUONuhjKTEiQlUI-O-23">
          <mxGeometry relative="1" as="geometry" />
        </mxCell>
        <mxCell id="kbEmUONuhjKTEiQlUI-O-21" value="World" style="rounded=1;whiteSpace=wrap;html=1;fillColor=#fad9d5;strokeColor=#ae4132;" vertex="1" parent="1">
          <mxGeometry x="460" y="180" width="80" height="30" as="geometry" />
        </mxCell>
        <mxCell id="kbEmUONuhjKTEiQlUI-O-23" value="CPP files" style="swimlane;fontStyle=0;childLayout=stackLayout;horizontal=1;startSize=30;horizontalStack=0;resizeParent=1;resizeParentMax=0;resizeLast=0;collapsible=1;marginBottom=0;whiteSpace=wrap;html=1;fillColor=#FF0000;fontColor=#ffffff;strokeColor=#005700;" vertex="1" parent="1">
          <mxGeometry x="450" y="260" width="200" height="120" as="geometry" />
        </mxCell>
        <mxCell id="kbEmUONuhjKTEiQlUI-O-24" value="RoomManager" style="text;align=left;verticalAlign=middle;spacingLeft=4;spacingRight=4;overflow=hidden;points=[[0,0.5],[1,0.5]];portConstraint=eastwest;rotatable=0;whiteSpace=wrap;fontColor=default;" vertex="1" parent="kbEmUONuhjKTEiQlUI-O-23">
          <mxGeometry y="30" width="200" height="30" as="geometry" />
        </mxCell>
        <mxCell id="kbEmUONuhjKTEiQlUI-O-25" value="Item 2" style="text;strokeColor=none;fillColor=none;align=left;verticalAlign=middle;spacingLeft=4;spacingRight=4;overflow=hidden;points=[[0,0.5],[1,0.5]];portConstraint=eastwest;rotatable=0;whiteSpace=wrap;html=1;" vertex="1" parent="kbEmUONuhjKTEiQlUI-O-23">
          <mxGeometry y="60" width="200" height="30" as="geometry" />
        </mxCell>
        <mxCell id="kbEmUONuhjKTEiQlUI-O-26" value="Item 3" style="text;strokeColor=none;fillColor=none;align=left;verticalAlign=middle;spacingLeft=4;spacingRight=4;overflow=hidden;points=[[0,0.5],[1,0.5]];portConstraint=eastwest;rotatable=0;whiteSpace=wrap;html=1;" vertex="1" parent="kbEmUONuhjKTEiQlUI-O-23">
          <mxGeometry y="90" width="200" height="30" as="geometry" />
        </mxCell>
        <mxCell id="kbEmUONuhjKTEiQlUI-O-34" style="edgeStyle=orthogonalEdgeStyle;rounded=0;orthogonalLoop=1;jettySize=auto;html=1;exitX=0.5;exitY=1;exitDx=0;exitDy=0;entryX=0.5;entryY=0;entryDx=0;entryDy=0;" edge="1" parent="1" source="kbEmUONuhjKTEiQlUI-O-28" target="kbEmUONuhjKTEiQlUI-O-30">
          <mxGeometry relative="1" as="geometry" />
        </mxCell>
        <mxCell id="kbEmUONuhjKTEiQlUI-O-28" value="Utils" style="rounded=1;whiteSpace=wrap;html=1;fillColor=#fad9d5;strokeColor=#ae4132;" vertex="1" parent="1">
          <mxGeometry x="-130" y="230" width="80" height="30" as="geometry" />
        </mxCell>
        <mxCell id="kbEmUONuhjKTEiQlUI-O-30" value="CPP files" style="swimlane;fontStyle=0;childLayout=stackLayout;horizontal=1;startSize=30;horizontalStack=0;resizeParent=1;resizeParentMax=0;resizeLast=0;collapsible=1;marginBottom=0;whiteSpace=wrap;html=1;fillColor=#FF0000;fontColor=#ffffff;strokeColor=#005700;" vertex="1" parent="1">
          <mxGeometry x="-220" y="310" width="200" height="120" as="geometry" />
        </mxCell>
        <mxCell id="kbEmUONuhjKTEiQlUI-O-31" value="GameplayUtils" style="text;align=left;verticalAlign=middle;spacingLeft=4;spacingRight=4;overflow=hidden;points=[[0,0.5],[1,0.5]];portConstraint=eastwest;rotatable=0;whiteSpace=wrap;fontColor=default;" vertex="1" parent="kbEmUONuhjKTEiQlUI-O-30">
          <mxGeometry y="30" width="200" height="30" as="geometry" />
        </mxCell>
        <mxCell id="kbEmUONuhjKTEiQlUI-O-32" value="Item 2" style="text;strokeColor=none;fillColor=none;align=left;verticalAlign=middle;spacingLeft=4;spacingRight=4;overflow=hidden;points=[[0,0.5],[1,0.5]];portConstraint=eastwest;rotatable=0;whiteSpace=wrap;html=1;" vertex="1" parent="kbEmUONuhjKTEiQlUI-O-30">
          <mxGeometry y="60" width="200" height="30" as="geometry" />
        </mxCell>
        <mxCell id="kbEmUONuhjKTEiQlUI-O-33" value="Item 3" style="text;strokeColor=none;fillColor=none;align=left;verticalAlign=middle;spacingLeft=4;spacingRight=4;overflow=hidden;points=[[0,0.5],[1,0.5]];portConstraint=eastwest;rotatable=0;whiteSpace=wrap;html=1;" vertex="1" parent="kbEmUONuhjKTEiQlUI-O-30">
          <mxGeometry y="90" width="200" height="30" as="geometry" />
        </mxCell>
      </root>
    </mxGraphModel>
  </diagram>
</mxfile>
